<?xml version="1.0" encoding="UTF-8" standalone="no"?><svg width="327" height="326" viewBox="0 0 327 326" xmlns="http://www.w3.org/2000/svg"><title>Slice</title><g fill="none" fill-rule="evenodd"><ellipse fill="#FFF" cx="162.922" cy="164.38" rx="152.922" ry="154.38"/><path d="M256.753 77.004c-8.118 6.451-14.177 11.446-14.177 28.983-23.453-35.252-59.383-39.356-107.788-40.313 66.742-22.383 109.788-.402 121.965 11.33zM66.788 252.003c8.118-6.451 14.177-11.445 14.177-28.982 23.453 35.251 59.383 39.356 107.788 40.312-66.742 22.383-109.788.402-121.965-11.33z" fill="#2D2D2D"/><path d="M162.413 266.76C106.404 266.76 61 220.923 61 164.38 61 107.837 106.404 62 162.413 62c56.01 0 101.414 45.837 101.414 102.38 0 56.543-45.405 102.38-101.414 102.38zm-2.036-30.22c38.414 0 69.554-31.47 69.554-70.292 0-38.821-31.14-70.292-69.554-70.292-38.413 0-69.553 31.471-69.553 70.292 0 38.822 31.14 70.293 69.553 70.293z" fill="#2D2D2D"/><path d="M162.413 266.76C106.404 266.76 61 220.923 61 164.38 61 107.837 106.404 62 162.413 62c56.01 0 101.414 45.837 101.414 102.38 0 56.543-45.405 102.38-101.414 102.38zm-2.036-30.22c38.414 0 69.554-31.47 69.554-70.292 0-38.821-31.14-70.292-69.554-70.292-38.413 0-69.553 31.471-69.553 70.292 0 38.822 31.14 70.293 69.553 70.293z" fill="#2D2D2D"/><path d="M160.183 219.474c-28.82 0-52.183-23.611-52.183-52.737S131.363 114 160.183 114s52.182 23.611 52.182 52.737-23.363 52.737-52.182 52.737zM172.535 166c9.29 0 16.821-7.611 16.821-17s-7.53-17-16.821-17c-9.29 0-16.821 7.611-16.821 17s7.53 17 16.821 17z" fill="#2D2D2D"/></g></svg>
